<mxfile host="Electron" modified="2023-06-13T19:30:07.483Z" agent="Mozilla/5.0 (Macintosh; Intel Mac OS X 10_15_7) AppleWebKit/537.36 (KHTML, like Gecko) draw.io/21.3.7 Chrome/112.0.5615.204 Electron/24.5.0 Safari/537.36" etag="7Q_ZsO22dPXACkvSC9AF" version="21.3.7" type="device">
  <diagram name="Página-1" id="kkzLbv9Y-1G9x1TP5E9l">
    <mxGraphModel dx="794" dy="574" grid="1" gridSize="10" guides="1" tooltips="1" connect="1" arrows="1" fold="1" page="1" pageScale="1" pageWidth="827" pageHeight="1169" math="0" shadow="0">
      <root>
        <mxCell id="0" />
        <mxCell id="1" parent="0" />
        <mxCell id="LFsvHJUoIW84cKthlYZu-6" value="" style="edgeStyle=orthogonalEdgeStyle;rounded=0;orthogonalLoop=1;jettySize=auto;html=1;" parent="1" source="LFsvHJUoIW84cKthlYZu-1" target="LFsvHJUoIW84cKthlYZu-3" edge="1">
          <mxGeometry relative="1" as="geometry" />
        </mxCell>
        <mxCell id="LFsvHJUoIW84cKthlYZu-1" value="&lt;font style=&quot;&quot;&gt;&lt;span style=&quot;font-size: 18px;&quot;&gt;e&lt;/span&gt;&lt;sub style=&quot;&quot;&gt;&lt;font style=&quot;font-size: 13px;&quot;&gt;1&lt;/font&gt;&lt;/sub&gt;&lt;/font&gt;" style="ellipse;whiteSpace=wrap;html=1;aspect=fixed;" parent="1" vertex="1">
          <mxGeometry x="179" y="240" width="60" height="60" as="geometry" />
        </mxCell>
        <mxCell id="LFsvHJUoIW84cKthlYZu-7" value="" style="edgeStyle=orthogonalEdgeStyle;rounded=0;orthogonalLoop=1;jettySize=auto;html=1;" parent="1" source="LFsvHJUoIW84cKthlYZu-3" target="LFsvHJUoIW84cKthlYZu-5" edge="1">
          <mxGeometry relative="1" as="geometry" />
        </mxCell>
        <mxCell id="LFsvHJUoIW84cKthlYZu-3" value="&lt;font style=&quot;&quot;&gt;&lt;span style=&quot;font-size: 18px;&quot;&gt;e&lt;/span&gt;&lt;sub style=&quot;&quot;&gt;&lt;font style=&quot;font-size: 13px;&quot;&gt;2&lt;/font&gt;&lt;/sub&gt;&lt;/font&gt;" style="ellipse;whiteSpace=wrap;html=1;aspect=fixed;" parent="1" vertex="1">
          <mxGeometry x="330" y="240" width="60" height="60" as="geometry" />
        </mxCell>
        <mxCell id="LFsvHJUoIW84cKthlYZu-4" value="&lt;font style=&quot;&quot;&gt;&lt;span style=&quot;font-size: 18px;&quot;&gt;e&lt;/span&gt;&lt;sub style=&quot;&quot;&gt;&lt;font style=&quot;font-size: 12px;&quot;&gt;t&lt;/font&gt;&lt;/sub&gt;&lt;/font&gt;" style="ellipse;whiteSpace=wrap;html=1;aspect=fixed;" parent="1" vertex="1">
          <mxGeometry x="578" y="240" width="60" height="60" as="geometry" />
        </mxCell>
        <mxCell id="LFsvHJUoIW84cKthlYZu-8" value="" style="edgeStyle=orthogonalEdgeStyle;rounded=0;orthogonalLoop=1;jettySize=auto;html=1;" parent="1" source="LFsvHJUoIW84cKthlYZu-5" target="LFsvHJUoIW84cKthlYZu-4" edge="1">
          <mxGeometry relative="1" as="geometry" />
        </mxCell>
        <mxCell id="LFsvHJUoIW84cKthlYZu-5" value="&lt;font style=&quot;font-size: 18px;&quot;&gt;...&lt;/font&gt;" style="text;html=1;strokeColor=none;fillColor=none;align=center;verticalAlign=middle;whiteSpace=wrap;rounded=0;" parent="1" vertex="1">
          <mxGeometry x="450" y="255" width="60" height="30" as="geometry" />
        </mxCell>
        <mxCell id="LFsvHJUoIW84cKthlYZu-14" style="edgeStyle=orthogonalEdgeStyle;rounded=0;orthogonalLoop=1;jettySize=auto;html=1;entryX=0;entryY=0.5;entryDx=0;entryDy=0;" parent="1" source="LFsvHJUoIW84cKthlYZu-13" target="LFsvHJUoIW84cKthlYZu-1" edge="1">
          <mxGeometry relative="1" as="geometry">
            <Array as="points">
              <mxPoint x="100" y="270" />
            </Array>
          </mxGeometry>
        </mxCell>
        <mxCell id="LFsvHJUoIW84cKthlYZu-13" value="Início" style="rhombus;whiteSpace=wrap;html=1;fontSize=14;" parent="1" vertex="1">
          <mxGeometry x="70" y="175" width="60" height="80" as="geometry" />
        </mxCell>
        <mxCell id="LFsvHJUoIW84cKthlYZu-16" value="T[i=e&lt;sub style=&quot;&quot;&gt;&lt;font style=&quot;font-size: 12px;&quot;&gt;1&lt;/font&gt;&lt;/sub&gt;&lt;font style=&quot;font-size: 14px;&quot;&gt;,j=e&lt;/font&gt;&lt;sub style=&quot;&quot;&gt;&lt;font style=&quot;font-size: 12px;&quot;&gt;2&lt;/font&gt;&lt;/sub&gt;]" style="text;html=1;strokeColor=none;fillColor=none;align=center;verticalAlign=middle;whiteSpace=wrap;rounded=0;fontSize=14;" parent="1" vertex="1">
          <mxGeometry x="236" y="270" width="89" height="30" as="geometry" />
        </mxCell>
        <mxCell id="LFsvHJUoIW84cKthlYZu-19" value="T[i=e&lt;sub style=&quot;&quot;&gt;&lt;font style=&quot;font-size: 12px;&quot;&gt;2&lt;/font&gt;&lt;/sub&gt;&lt;font style=&quot;font-size: 14px;&quot;&gt;,j=e&lt;/font&gt;&lt;sub style=&quot;&quot;&gt;&lt;font style=&quot;font-size: 12px;&quot;&gt;3&lt;/font&gt;&lt;/sub&gt;]" style="text;html=1;strokeColor=none;fillColor=none;align=center;verticalAlign=middle;whiteSpace=wrap;rounded=0;fontSize=14;" parent="1" vertex="1">
          <mxGeometry x="385" y="270" width="89" height="30" as="geometry" />
        </mxCell>
        <mxCell id="LFsvHJUoIW84cKthlYZu-20" value="T[i=e&lt;sub style=&quot;&quot;&gt;&lt;font style=&quot;font-size: 12px;&quot;&gt;t-1&lt;/font&gt;&lt;/sub&gt;&lt;font style=&quot;font-size: 14px;&quot;&gt;,j=e&lt;/font&gt;&lt;sub style=&quot;&quot;&gt;&lt;font style=&quot;font-size: 12px;&quot;&gt;t&lt;/font&gt;&lt;/sub&gt;]" style="text;html=1;strokeColor=none;fillColor=none;align=center;verticalAlign=middle;whiteSpace=wrap;rounded=0;fontSize=14;" parent="1" vertex="1">
          <mxGeometry x="493" y="270" width="89" height="30" as="geometry" />
        </mxCell>
        <mxCell id="LFsvHJUoIW84cKthlYZu-21" value="∏&lt;sub style=&quot;border-color: var(--border-color); font-size: 14px;&quot;&gt;0&lt;/sub&gt;[i=e&lt;sub style=&quot;&quot;&gt;&lt;font style=&quot;font-size: 12px;&quot;&gt;1&lt;/font&gt;&lt;/sub&gt;]" style="text;html=1;strokeColor=none;fillColor=none;align=center;verticalAlign=middle;whiteSpace=wrap;rounded=0;fontSize=14;" parent="1" vertex="1">
          <mxGeometry x="90" y="270" width="89" height="30" as="geometry" />
        </mxCell>
      </root>
    </mxGraphModel>
  </diagram>
</mxfile>
